<svg xmlns="http://www.w3.org/2000/svg" viewBox="0 0 1200 630" role="img" aria-label="Quaid Open Graph image">

<defs>
  <linearGradient id="memoryEchoFade" x1="0" y1="0" x2="1" y2="0">
    <stop offset="0%" stop-color="#F7F7F5" stop-opacity="0.96"/>
    <stop offset="48%" stop-color="#D6D0C4" stop-opacity="0.82"/>
    <stop offset="100%" stop-color="#A59A7A" stop-opacity="0"/>
  </linearGradient>
  <filter id="subtleBloom" x="-20%" y="-20%" width="140%" height="140%">
    <feGaussianBlur stdDeviation="0.9" result="blur"/>
    <feMerge>
      <feMergeNode in="blur"/>
      <feMergeNode in="SourceGraphic"/>
    </feMerge>
  </filter>
</defs>

<style>
  .word { font-family: "Recoleta", "Recoleta Alt", "Cormorant Garamond", "Iowan Old Style", Georgia, serif; font-size: 128px; font-weight: 400; letter-spacing: 0.18em; fill: #F7F7F5; }
  .tag { font-family: Inter, ui-sans-serif, system-ui, -apple-system, BlinkMacSystemFont, "Segoe UI", sans-serif; font-size: 18px; letter-spacing: 0.42em; fill: #D6D0C4; }
  .small { font-family: Inter, ui-sans-serif, system-ui, -apple-system, BlinkMacSystemFont, "Segoe UI", sans-serif; font-size: 20px; fill: #8A8376; }
</style>
<rect width="1200" height="630" fill="#0D0D0D"/>
<g transform="translate(98 156) scale(0.95)" opacity="0.95">

<path d="M52 32 C116 3, 238 0, 301 31" fill="none" stroke="url(#memoryEchoFade)" stroke-width="8" stroke-linecap="round"/>
<path d="M35 58 C116 34, 246 30, 324 55" fill="none" stroke="url(#memoryEchoFade)" stroke-width="8" stroke-linecap="round"/>
<path d="M20 84 C109 63, 260 59, 340 82" fill="none" stroke="url(#memoryEchoFade)" stroke-width="8" stroke-linecap="round"/>
<path d="M13 110 C107 91, 258 86, 348 108" fill="none" stroke="url(#memoryEchoFade)" stroke-width="8" stroke-linecap="round"/>
<path d="M11 136 C109 120, 260 116, 350 135" fill="none" stroke="url(#memoryEchoFade)" stroke-width="8" stroke-linecap="round"/>
<path d="M16 162 C112 149, 256 145, 344 162" fill="none" stroke="url(#memoryEchoFade)" stroke-width="8" stroke-linecap="round"/>
<path d="M26 188 C116 178, 247 174, 333 189" fill="none" stroke="url(#memoryEchoFade)" stroke-width="8" stroke-linecap="round"/>
<path d="M40 214 C122 207, 238 202, 318 216" fill="none" stroke="url(#memoryEchoFade)" stroke-width="8" stroke-linecap="round"/>
<path d="M58 240 C132 236, 226 231, 296 245" fill="none" stroke="url(#memoryEchoFade)" stroke-width="8" stroke-linecap="round"/>
<path d="M82 266 C143 265, 209 260, 273 274" fill="none" stroke="url(#memoryEchoFade)" stroke-width="8" stroke-linecap="round"/>

</g>
<text class="word" x="765" y="275" text-anchor="middle">quaid</text>
<text class="tag" x="765" y="350" text-anchor="middle">PERSISTENT MEMORY FOR AGENTS</text>
<text class="small" x="100" y="560">persistent · connected · evolving · compounding</text>
</svg>
